<?xml version="1.0" encoding="utf-8"?>
<!-- Generator: Adobe Illustrator 25.2.3, SVG Export Plug-In . SVG Version: 6.00 Build 0)  -->
<svg version="1.1" id="Capa_1" xmlns="http://www.w3.org/2000/svg" xmlns:xlink="http://www.w3.org/1999/xlink" x="0px" y="0px"
	 width="32px" height="32px" viewBox="0 0 100 100" style="enable-background:new 0 0 100 100;" xml:space="preserve">
<style type="text/css">
	.st0{fill:#FFFFFF;}
	.st1{fill:#256BD1;stroke:#FFFFFF;stroke-width:0.5;stroke-miterlimit:10;}
	.st2{fill:none;stroke:#000000;stroke-width:2;stroke-miterlimit:10;}
	.st3{fill:none;stroke:#000000;stroke-width:1.5;stroke-miterlimit:10;}
	.st4{fill:#256BD1;stroke:#256BD1;stroke-width:0.5;stroke-miterlimit:10;}
	.st5{fill:#256BD1;}
</style>
<g>
	<path d="M22.9,52.2c5.7,0,11.3,0,17,0c6.9,0,13.9,0,20.8-0.1c2.6,0,5.1-0.2,7.6-0.4c1.6-0.1,3.1-0.5,4.7-0.8
		c0.4-0.1,0.8-0.4,1.2-0.7c0.4-0.3,0.5-0.7,0.3-1.1c-0.1-0.4-0.3-0.8-0.5-1.1c-0.6-1-0.9-2-0.9-3.1c-0.2-1.9-0.1-3.8,0.3-5.6
		c0.5-1.9,1.3-3.7,2.7-5.1c0.7-0.7,1.3-0.9,2.3-0.4c1.2,0.6,2.1,1.5,2.9,2.6c1.6,2,2.9,4.2,4,6.4c0.2,0.3,0.3,0.4,0.6,0.4
		c1.6-0.2,3.1-0.4,4.7-0.2c2,0.2,3.9,0.7,5.4,2c0.2,0.2,0.5,0.5,0.7,0.7c0.2,0.3,0.3,0.6,0.2,1c-0.5,2.6-2,4.4-4.1,5.8
		c-1.8,1.2-3.9,2-6,2.4c-1.2,0.3-2.5,0.4-3.7,0.6c-0.1,0-0.3,0.2-0.3,0.3c-1.2,2.6-2.6,5.1-4.2,7.5c-5,7.5-11.5,13.1-19.7,16.9
		c-4.2,1.9-8.6,3.3-13.2,4c-2.9,0.5-5.8,0.8-8.7,0.6c-3.5-0.2-6.9-0.7-10.3-1.5c-3.4-0.8-6.6-2-9.7-3.7c-6.8-3.8-11.4-9.4-13.4-17
		c-0.7-2.7-1-5.4-0.9-8.2c0-0.6,0-1.1,0.1-1.7c0-0.6,0.4-0.9,1.1-0.9c2.9,0,5.9,0.1,8.8,0.1C16.2,52,22.9,52.1,22.9,52.2z M4.8,53.8
		c0,0.2,0,0.3,0,0.5c-0.1,3.5,0.4,6.8,1.5,10.1c1,3,2.6,5.6,4.7,8c3.7,4.1,8.3,6.7,13.5,8.4c2.3,0.7,4.6,1.2,6.9,1.6
		c2.4,0.4,4.7,0.7,7.1,0.7c3,0,6-0.4,9-1c5.6-1.1,10.8-3.1,15.6-6.1c5.1-3.1,9.4-7.1,13-11.9c2.1-2.9,3.9-6,5.4-9.2
		c0.3-0.7,0.8-1.1,1.6-1.2c1.2-0.2,2.4-0.3,3.6-0.5c2-0.4,3.9-1.1,5.6-2.3c1.4-1,2.5-2.3,3-4c0.1-0.2,0-0.4-0.2-0.5
		c-0.9-0.8-2-1.2-3.1-1.5c-1.8-0.4-3.7-0.2-5.5,0c-1.2,0.2-2.1-0.2-2.6-1.2c-1.1-2.1-2.3-4.1-3.7-5.9c-0.6-0.8-1.3-1.6-2.2-2.2
		c-0.3-0.2-0.5-0.2-0.7,0.1c-0.6,0.7-1.2,1.5-1.6,2.4c-0.8,2-0.9,4.1-0.8,6.2c0.1,1.1,0.3,2.1,0.8,3c0.2,0.3,0.3,0.7,0.5,1
		c0.5,1.5,0.2,2.6-1.1,3.6c-0.8,0.6-1.8,0.9-2.8,1.1c-2.8,0.6-5.7,0.8-8.6,0.9C59.9,53.9,55.9,54,52,54c-7.6,0-15.3,0-22.9-0.1
		c-6.9,0-13.9-0.1-20.8-0.2C7.1,53.8,6,53.8,4.8,53.8z"/>
	<path d="M9,44.8c0-1.5,0-3,0-4.5c0-0.7,0.3-1,1-1c3,0,6.1,0,9.1,0c0.7,0,1,0.3,1,1.1c0,3,0,6,0,9.1c0,0.8-0.3,1.1-1.1,1.1
		c-3,0-6,0-9,0c-0.8,0-1.1-0.3-1.1-1.1C9,47.8,9,46.3,9,44.8z M18.3,48.6c0-2.5,0-5,0-7.5c-2.5,0-5,0-7.5,0c0,2.5,0,5,0,7.5
		C13.3,48.6,15.8,48.6,18.3,48.6z"/>
	<path d="M54.5,44.9c0-1.5,0-3,0-4.5c0-0.8,0.3-1.1,1.1-1.1c3,0,6,0,9,0c0.8,0,1.1,0.3,1.1,1.1c0,2.5,0,5,0,7.5c0,0.5,0,1,0,1.5
		c0,0.7-0.4,1-1,1c-3,0-6.1,0-9.1,0c-0.7,0-1-0.4-1-1C54.5,47.9,54.5,46.4,54.5,44.9C54.5,44.9,54.5,44.9,54.5,44.9z M56.4,48.6
		c2.5,0,5,0,7.6,0c0-2.5,0-5,0-7.5c-2.5,0-5,0-7.6,0C56.4,43.6,56.4,46.1,56.4,48.6z"/>
	<path d="M43,32.8c0,1.5,0,3,0,4.5c0,0.7-0.3,1.1-1.1,1.1c-3,0-6,0-9,0c-0.8,0-1.1-0.3-1.1-1.1c0-3,0-6,0-9c0-0.7,0.4-1.1,1.1-1.1
		c3,0,6,0,9,0c0.8,0,1.1,0.3,1.1,1.1C43,29.8,43,31.3,43,32.8z M41.1,36.6c0-2.5,0-5,0-7.5c-2.5,0-5,0-7.5,0c0,2.5,0,5,0,7.5
		C36.1,36.6,38.6,36.6,41.1,36.6z"/>
	<path d="M43.2,44.8c0-1.5,0-3,0-4.5c0-0.7,0.3-1.1,1.1-1.1c3,0,6,0,9.1,0c0.8,0,1.1,0.3,1.1,1.1c0,3,0,6,0,9c0,0.8-0.3,1.1-1.1,1.1
		c-2.8,0-5.5,0-8.3,0c-0.3,0-0.6,0-0.9,0c-0.5,0-0.9-0.4-0.9-0.9C43.1,47.9,43.2,46.4,43.2,44.8C43.2,44.8,43.2,44.8,43.2,44.8z
		 M45,48.6c2.5,0,5,0,7.5,0c0-2.5,0-5,0-7.5c-2.5,0-5,0-7.5,0C45,43.6,45,46.1,45,48.6z"/>
	<path d="M26,39.2c1.5,0,3,0,4.5,0c0.9,0,1.2,0.3,1.2,1.1c0,3,0,5.9,0,8.9c0,0.9-0.3,1.2-1.2,1.2c-3,0-5.9,0-8.9,0
		c-0.8,0-1.1-0.3-1.1-1.1c0-3,0-6,0-9c0-0.7,0.3-1.1,1.1-1.1C22.9,39.2,24.4,39.2,26,39.2z M22.2,41.1c0,2.5,0,5,0,7.5
		c2.5,0,5,0,7.5,0c0-2.5,0-5,0-7.5C27.2,41.1,24.7,41.1,22.2,41.1z"/>
	<path d="M43,44.8c0,1.5,0,3,0,4.6c0,0.7-0.3,1.1-1.1,1.1c-3,0-6,0-9,0c-0.9,0-1.2-0.3-1.2-1.2c0-2.9,0-5.8,0-8.7c0-0.2,0-0.3,0-0.5
		c0-0.5,0.4-0.8,0.8-0.8c0.5,0,1,0,1.5,0c2.6,0,5.2,0,7.8,0c0.7,0,1.1,0.4,1.1,1.1C42.9,41.8,42.9,43.3,43,44.8
		C42.9,44.8,43,44.8,43,44.8z M33.6,48.6c2.5,0,5,0,7.5,0c0-2.5,0-5,0-7.5c-2.5,0-5,0-7.5,0C33.6,43.6,33.6,46.1,33.6,48.6z"/>
	<path d="M48.7,26.4c-1.5,0-3,0-4.6,0c-0.7,0-1-0.3-1-1c0-3,0-6.1,0-9.1c0-0.7,0.3-1.1,1.1-1.1c3,0,6.1,0,9.1,0
		c0.7,0,1.1,0.4,1.1,1.1c0,3,0,6.1,0,9.1c0,0.7-0.3,1-1.1,1.1C51.8,26.4,50.2,26.4,48.7,26.4C48.7,26.4,48.7,26.4,48.7,26.4z
		 M52.5,17c-2.5,0-5,0-7.6,0c0,0.2,0,0.3,0,0.4c0,1.9,0,3.8,0,5.7c0,0.4,0,0.8,0,1.1c0,0.2,0.1,0.3,0.3,0.3c0.5,0,0.9,0,1.4,0
		c1.8,0,3.7,0,5.5,0c0.1,0,0.2,0,0.4,0C52.5,22,52.5,19.5,52.5,17z"/>
	<path d="M25.9,38.4c-1.5,0-3,0-4.6,0c-0.6,0-1-0.3-1-1c0-2.5,0-4.9,0-7.4c0-0.6,0-1.2,0-1.8c0-0.7,0.4-1,1-1c3,0,6.1,0,9.1,0
		c0.7,0,1,0.4,1,1.1c0,3,0,6.1,0,9.1c0,0.7-0.4,1-1.1,1C29,38.4,27.5,38.4,25.9,38.4C25.9,38.4,25.9,38.4,25.9,38.4z M29.7,36.6
		c0-2.5,0-5,0-7.5c-2.5,0-5,0-7.5,0c0,2.5,0,5,0,7.5C24.7,36.6,27.2,36.6,29.7,36.6z"/>
	<path d="M43.2,32.8c0-1.5,0-3,0-4.6c0-0.7,0.3-1,1.1-1c0.8,0,1.6,0,2.4,0c2.2,0,4.4,0,6.5,0c0.8,0,1.2,0.3,1.2,1.1c0,3,0,6,0,9
		c0,0.7-0.3,1.1-1.1,1.1c-3,0-6.1,0-9.1,0c-0.7,0-1-0.3-1-1C43.1,35.9,43.2,34.3,43.2,32.8z M45,29c0,2.5,0,5,0,7.5c2.5,0,5,0,7.5,0
		c0-2.5,0-5,0-7.5C50,29,47.5,29,45,29z"/>
	<path class="st0" d="M52.5,17c0,2.5,0,5,0,7.5c-0.1,0-0.3,0-0.4,0c-1.8,0-3.7,0-5.5,0c-0.5,0-0.9,0-1.4,0c-0.2,0-0.3-0.1-0.3-0.3
		c0-0.4,0-0.8,0-1.1c0-1.9,0-3.8,0-5.7c0-0.1,0-0.3,0-0.4C47.5,17,50,17,52.5,17z"/>
</g>
</svg>
