<svg width="32" height="32" xmlns="http://www.w3.org/2000/svg">

 <g>
  <title>background</title>
  <rect fill="none" id="canvas_background" height="402" width="582" y="-1" x="-1"/>
 </g>
 <g>
  <title>Layer 1</title>
  <path id="svg_1" fill-rule="evenodd" fill="#000000" d="m18.099,15.108l3.304,0l0,-2.973l-3.303,0l0,2.973l-0.001,0zm-3.904,0l3.304,0l0,-2.973l-3.304,0l0,2.973zm-3.905,0l3.304,0l0,-2.973l-3.304,0l0,2.973zm-3.905,0l3.305,0l0,-2.973l-3.306,0l0,2.973l0.001,0zm-3.904,0l3.304,0l0,-2.973l-3.305,0l0,2.973l0.001,0zm3.904,-3.568l3.305,0l0,-2.972l-3.306,0l0,2.972l0.001,0zm3.905,0l3.304,0l0,-2.972l-3.304,0l0,2.972zm3.905,0l3.304,0l0,-2.972l-3.304,0l0,2.972zm0,-3.567l3.304,0l0,-2.973l-3.304,0l0,2.973zm17.139,5.402c-0.722,-0.478 -2.38,-0.653 -3.656,-0.415c-0.164,-1.19 -0.834,-2.221 -2.052,-3.153l-0.7,-0.463l-0.468,0.694c-0.598,0.893 -0.897,2.13 -0.8,3.317c0.045,0.418 0.183,1.164 0.617,1.82c-0.433,0.231 -1.29,0.549 -2.42,0.528l-21.731,0l-0.043,0.247c-0.204,1.193 -0.2,4.914 2.24,7.774c1.857,2.174 4.639,3.276 8.269,3.276c7.87,0 13.693,-3.586 16.42,-10.104c1.073,0.02 3.381,0.006 4.567,-2.237c0.031,-0.051 0.102,-0.186 0.31,-0.61l0.113,-0.234l-0.667,-0.44l0.001,0z"/>
 </g>
</svg>