<svg width="782" height="286" viewBox="0 0 782 286" fill="none" xmlns="http://www.w3.org/2000/svg">
<rect width="782" height="286" fill=""/>
<path d="M50.3 216.4L14 97.7H36.8L61.6 179.1L86.6 97.8H106.4L131.4 179.1L156.3 97.8H178.9L142.6 216.4H124.2L96.5 130.5L68.7 216.4H50.3Z" fill="white"/>
<path d="M333.7 216.4V212.7L401 118.3H339.8V97.8H437.4V101.5L370.2 195.8H434.2V216.4H333.7Z" fill="white"/>
<path d="M287.9 110.3C277.7 99.7 263.9 94.1 247.5 94.1C213 94.1 186.9 121.2 186.9 157.2C186.9 193.2 212.9 220.3 247.5 220.3C263.8 220.3 277.7 214.8 287.9 204.2V217.8H311.1V96.6H287.9V110.3ZM249.9 198.4C227.1 198.4 210.5 181.1 210.5 157.2C210.5 133.4 227.1 116.1 249.9 116.1C272.6 116.1 289.1 133.4 289.1 157.2C289.2 181 272.7 198.4 249.9 198.4Z" fill="white"/>
<path d="M545.6 96.6V164.9C545.6 186.2 533.9 198.4 513.5 198.4C493 198.4 481.2 186.2 481.2 164.9V96.6H458V166.8C458 206.3 487.9 220.3 513.5 220.3C539 220.3 568.9 206.3 568.9 166.8V96.6H545.6V96.6Z" fill="white"/>
<path d="M597.5 216.4V66H618V143.6H620.7V216.4H597.5ZM680.8 216.4V158.1C680.8 153.5 680.4 148.8 679.6 143.9C678.8 139 677.4 134.5 675.2 130.3C673 126.1 670 122.8 666.1 120.2C662.2 117.6 657.1 116.4 650.8 116.4C646.7 116.4 642.8 117.1 639.2 118.4C635.5 119.8 632.3 121.9 629.6 124.9C626.9 127.9 624.7 131.9 623.1 136.8C621.5 141.7 620.7 147.7 620.7 154.7L606.4 149.3C606.4 138.5 608.4 129 612.4 120.8C616.4 112.6 622.2 106.1 629.8 101.5C637.3 96.9 646.5 94.6 657.1 94.6C665.3 94.6 672.2 95.9 677.8 98.6C683.4 101.2 687.9 104.7 691.4 109C694.9 113.3 697.5 118 699.4 123C701.3 128 702.5 133 703.1 137.8C703.8 142.6 704.1 146.9 704.1 150.5V216.4H680.8V216.4Z" fill="white"/>
<path d="M748.4 218.7C758.728 218.7 767.1 210.328 767.1 200C767.1 189.672 758.728 181.3 748.4 181.3C738.072 181.3 729.7 189.672 729.7 200C729.7 210.328 738.072 218.7 748.4 218.7Z" fill="#256BD1"/>
</svg>
